<svg width="1024" height="1024" viewBox="0 0 1024 1024" xmlns="http://www.w3.org/2000/svg">
  <rect width="1024" height="1024" fill="white"></rect>
  <g fill="none" stroke="#111" stroke-width="28" stroke-linecap="round" stroke-linejoin="round">
    <circle cx="512" cy="512" r="474"></circle>

    <path d="M360 104 C395 160 392 215 392 245 C392 285 434 307 476 350 C512 387 540 425 510 458 C493 477 462 480 455 499 C447 520 476 530 470 552 C465 571 438 570 434 590 C431 607 458 612 452 631 C446 650 425 655 430 681 C438 729 405 777 350 785 C305 792 260 782 231 814 C193 856 185 905 176 850"></path>

    <g id="hand" transform="translate(30,0)">
      <path d="M521 928 C510 874 480 842 479 778 L493 464 C495 426 548 425 549 465 L550 738"></path>

      <path d="M550 738 C592 693 623 674 650 684 C680 696 675 727 650 751 C622 778 598 802 589 850"></path>

      <path d="M550 610 C573 590 610 594 622 626 L622 740"></path>
      <path d="M622 646 C646 625 682 632 694 664 L694 760 C693 793 648 796 633 764"></path>
      <path d="M694 674 C716 653 752 661 762 691 L762 855"></path>

    </g>
  </g>
</svg>